<svg width="184" height="32" viewBox="0 0 184 32" fill="none" xmlns="http://www.w3.org/2000/svg">
<g clip-path="url(#clip0_64_47)">
<path d="M120.078 30.8837C120.123 30.9998 120.139 31.1251 120.125 31.2488C120.11 31.3724 120.066 31.4907 119.995 31.5934C119.925 31.6961 119.83 31.7801 119.72 31.8382C119.61 31.8963 119.487 31.9267 119.362 31.9267H114.73C114.165 31.9499 113.607 31.7925 113.137 31.4774C112.733 31.1958 112.429 30.7929 112.27 30.3272L110.558 25.2815C110.506 25.1299 110.408 24.9981 110.278 24.9048C110.148 24.8114 109.991 24.7611 109.831 24.761H98.7649C98.6043 24.761 98.4477 24.8112 98.3172 24.9046C98.1866 24.9979 98.0888 25.1298 98.0373 25.2815L96.3253 30.3272C96.1338 30.8076 95.7998 31.2181 95.3681 31.504C94.9364 31.7898 94.4275 31.9373 93.9095 31.9267H89.2316C89.1069 31.9267 88.984 31.8963 88.8736 31.8382C88.7632 31.7801 88.6687 31.6961 88.5982 31.5934C88.5277 31.4907 88.4833 31.3724 88.4689 31.2488C88.4545 31.1251 88.4705 30.9998 88.5156 30.8837L100.309 0.489008C100.365 0.344854 100.463 0.220945 100.591 0.133544C100.719 0.0461419 100.87 -0.000668098 101.025 -0.000732412H107.572C107.727 -0.000756864 107.878 0.0460128 108.006 0.133426C108.134 0.22084 108.232 0.344803 108.288 0.489008L120.078 30.8837ZM100.994 19.7211H107.598C107.72 19.721 107.84 19.692 107.948 19.6365C108.057 19.581 108.15 19.5006 108.221 19.4019C108.292 19.3032 108.339 19.1891 108.357 19.0689C108.375 18.9488 108.365 18.826 108.326 18.7108L105.722 10.9777C105.532 10.4214 105.309 9.76776 105.052 9.01679L105.045 8.99367C104.993 8.84057 104.895 8.70761 104.763 8.61374C104.631 8.51988 104.473 8.46992 104.311 8.47098C104.149 8.47205 103.992 8.52408 103.862 8.61968C103.731 8.71527 103.634 8.84953 103.585 9.00329L103.57 9.04887C103.321 9.80841 103.087 10.4659 102.868 11.0213L100.266 18.7095C100.227 18.8248 100.216 18.9478 100.234 19.0682C100.252 19.1886 100.299 19.3031 100.37 19.402C100.441 19.5009 100.535 19.5816 100.643 19.6372C100.752 19.6928 100.872 19.7217 100.994 19.7217V19.7211Z" fill="#E01E26"/>
<path d="M147.214 16.0497C146.599 17.4022 145.688 18.5996 144.547 19.553C143.379 20.5143 142.03 21.2343 140.58 21.6711C139.002 22.1512 137.36 22.3892 135.71 22.3771H131.355C131.143 22.3771 130.939 22.4614 130.789 22.6114C130.638 22.7614 130.554 22.9648 130.554 23.1769V31.1308C130.554 31.2359 130.533 31.3399 130.493 31.4369C130.453 31.5339 130.393 31.6221 130.319 31.6964C130.245 31.7706 130.156 31.8295 130.059 31.8697C129.962 31.9099 129.857 31.9306 129.752 31.9306H124.569C124.356 31.9306 124.152 31.8463 124.002 31.6964C123.851 31.5464 123.767 31.343 123.767 31.1308V0.880565C123.767 0.668456 123.851 0.465042 124.002 0.315058C124.152 0.165074 124.356 0.0808044 124.569 0.0808044H136.372C138.058 0.053965 139.736 0.323368 141.329 0.876706C142.708 1.36112 143.969 2.12839 145.031 3.129C146.051 4.10878 146.847 5.2956 147.367 6.60917C147.925 8.03682 148.202 9.5584 148.183 11.0906V11.1818C148.219 12.8555 147.888 14.5168 147.214 16.0497ZM141.307 11.2274C141.352 10.5556 141.243 9.88248 140.987 9.25949C140.731 8.63651 140.336 8.08014 139.831 7.63294C138.676 6.75905 137.246 6.32381 135.798 6.40506H131.355C131.143 6.40506 130.939 6.48933 130.789 6.63932C130.638 6.7893 130.554 6.99271 130.554 7.20482V15.3417C130.554 15.5538 130.638 15.7572 130.789 15.9072C130.939 16.0572 131.143 16.1415 131.355 16.1415H135.93C136.651 16.1862 137.373 16.0864 138.054 15.8481C138.735 15.6097 139.362 15.2376 139.897 14.7537C140.356 14.3091 140.719 13.7744 140.962 13.1832C141.204 12.5921 141.322 11.9572 141.307 11.3185L141.307 11.2274Z" fill="#E01E26"/>
<path d="M22.4075 26.5236C21.873 27.6839 21.0792 28.7067 20.0869 29.5134C19.0329 30.3517 17.8263 30.9787 16.5336 31.36C15.3417 31.7588 14.0958 31.9737 12.8388 31.9974C10.4794 31.9968 8.13796 31.5885 5.91823 30.7907C3.86257 30.0566 1.9563 28.959 0.290781 27.5506C0.13918 27.4248 0.0390294 27.248 0.00927287 27.0535C-0.0204837 26.8591 0.0222323 26.6605 0.129313 26.4953L2.40164 23.0145C2.46133 22.923 2.53922 22.8447 2.63049 22.7844C2.72176 22.7241 2.82448 22.6832 2.93226 22.6641C3.04003 22.645 3.15059 22.6482 3.25708 22.6735C3.36356 22.6988 3.4637 22.7456 3.55131 22.8111C4.68952 23.6758 5.91924 24.4137 7.21845 25.0114C8.74954 25.6955 10.4111 26.0404 12.0887 26.0223C13.234 26.0877 14.3738 25.8202 15.3698 25.2521C15.7355 25.0308 16.0362 24.7171 16.2413 24.3427C16.4465 23.9682 16.5489 23.5464 16.5381 23.1198V23.0318C16.546 22.6302 16.4629 22.232 16.2949 21.8669C16.0778 21.4729 15.7564 21.1458 15.3659 20.9214C14.7661 20.5611 14.1292 20.2663 13.4661 20.0421C12.6559 19.7489 11.6027 19.4411 10.3066 19.1184C8.86888 18.7752 7.45224 18.3495 6.06363 17.8437C4.90536 17.4339 3.81749 16.848 2.83849 16.1068C1.95898 15.424 1.25466 14.5425 0.783586 13.5349C0.261284 12.329 0.0121889 11.023 0.0540377 9.71001V9.62208C0.0337173 8.31185 0.302775 7.01322 0.842134 5.81841C1.36171 4.69764 2.11567 3.70076 3.05336 2.89474C4.05023 2.04698 5.20537 1.40433 6.45222 1.00381C7.85869 0.550087 9.32965 0.327252 10.8077 0.343983C12.9292 0.320973 15.0389 0.663173 17.0438 1.35555C19.0998 2.21766 21.0414 3.32964 22.8244 4.66626C22.9922 4.78948 23.1053 4.97311 23.1396 5.17816C23.174 5.3832 23.1269 5.59353 23.0084 5.76451L20.3654 9.58743C20.2462 9.7599 20.0638 9.87878 19.8576 9.91851C19.6514 9.95824 19.4378 9.91565 19.2627 9.79988C17.8066 8.79889 16.2769 7.90888 14.6866 7.13743C13.4309 6.60889 12.0831 6.33254 10.7202 6.3242C9.67081 6.24891 8.62567 6.51952 7.74538 7.09444C7.43855 7.31063 7.18829 7.59726 7.01575 7.93014C6.84321 8.26303 6.75343 8.63241 6.75395 9.00717V9.09512C6.74273 9.54434 6.8412 9.98954 7.04088 10.3923C7.28721 10.8129 7.6473 11.1556 8.0799 11.3814C8.7308 11.7367 9.42024 12.0166 10.1348 12.2159C11.0038 12.4799 12.1013 12.7877 13.4275 13.1395C14.8497 13.5042 16.2449 13.9671 17.6029 14.5246C18.7235 14.9768 19.767 15.5998 20.6961 16.3713C21.513 17.0597 22.1626 17.9242 22.5959 18.8996C23.0495 20.0004 23.2686 21.1834 23.2393 22.3733V22.4612C23.2651 23.8616 22.9811 25.2504 22.4075 26.5287" fill="#1D2355"/>
<path d="M42.5619 30.7605V30.7521C42.5621 30.603 42.5207 30.4568 42.4422 30.3299C42.3638 30.2031 42.2514 30.1005 42.1177 30.0338C41.984 29.9671 41.8344 29.939 41.6855 29.9525C41.5367 29.966 41.3946 30.0206 41.2752 30.1103C40.683 30.5329 40.0482 30.8926 39.3811 31.1835C37.9525 31.7624 36.419 32.0395 34.8776 31.9974C33.731 32.0048 32.5891 31.8492 31.4865 31.5352C30.4812 31.255 29.539 30.785 28.7111 30.1507C27.8894 29.5223 27.2288 28.7084 26.7836 27.7758C26.3383 26.8432 26.1212 25.8186 26.1499 24.786V24.6981C26.1196 23.5385 26.3806 22.3898 26.909 21.3566C27.413 20.4206 28.1374 19.6208 29.0199 19.026C30.0031 18.3749 31.0958 17.9057 32.2457 17.6408C33.6054 17.3205 34.999 17.1656 36.396 17.1793C37.5322 17.1665 38.6673 17.2548 39.7877 17.4432C40.7427 17.618 41.6855 17.8538 42.6102 18.1492V17.7538C42.649 17.1488 42.5447 16.5431 42.3058 15.9856C42.0668 15.4282 41.6999 14.9345 41.2347 14.5445C40.3172 13.8119 38.9574 13.4454 37.1551 13.445C35.9207 13.4007 34.6857 13.5115 33.479 13.7749C31.5431 14.2884 29.8698 14.8962 28.6815 15.3269C28.582 15.363 28.4762 15.3791 28.3704 15.3742C28.2647 15.3693 28.1609 15.3435 28.0652 15.2983C27.9694 15.2531 27.8836 15.1894 27.8127 15.1109C27.7418 15.0324 27.6873 14.9407 27.6521 14.841L26.3731 11.2216C26.3043 11.0271 26.3135 10.8136 26.3987 10.6257C26.484 10.4378 26.6387 10.29 26.8305 10.2132C28.7332 9.41403 30.694 8.76023 32.696 8.25748C34.5049 7.87854 36.3505 7.70157 38.1987 7.72985C42.151 7.72985 45.0288 8.62376 46.8319 10.4116C48.635 12.1994 49.5357 14.6908 49.5339 17.886V30.7605C49.5339 30.9726 49.4495 31.176 49.2992 31.326C49.1488 31.476 48.9449 31.5603 48.7323 31.5603H43.3629C43.1503 31.5603 42.9464 31.476 42.7961 31.326C42.6457 31.176 42.5613 30.9726 42.5613 30.7605H42.5619ZM42.7034 22.6146C42.7036 22.4483 42.6519 22.2861 42.5555 22.1504C42.4592 22.0147 42.3229 21.9122 42.1656 21.8572C41.6513 21.679 41.1258 21.5347 40.5926 21.4253C39.7729 21.2599 38.9384 21.1789 38.1022 21.1833C36.8305 21.1158 35.5653 21.4048 34.4498 22.0177C34.0303 22.2636 33.6854 22.6182 33.4516 23.0439C33.2178 23.4696 33.1039 23.9505 33.1219 24.4356V24.5235C33.106 24.9396 33.1984 25.3526 33.3901 25.7225C33.5818 26.0923 33.8662 26.4064 34.2156 26.634C35.0659 27.1666 36.059 27.4272 37.0618 27.3811C38.5175 27.4543 39.9575 27.0531 41.1645 26.2379C41.6491 25.9053 42.0436 25.4582 42.313 24.9366C42.5824 24.4149 42.7183 23.8349 42.7086 23.2481L42.7034 22.6146Z" fill="#1D2355"/>
<path d="M71.4885 30.238C69.5633 31.0938 67.4666 31.4961 65.3605 31.4139C63.565 31.4299 61.7822 31.1108 60.1043 30.4729C58.5653 29.8951 57.1499 29.0318 55.9328 27.9286C54.7772 26.8702 53.8472 25.5903 53.1985 24.1654C52.5377 22.723 52.1998 21.1543 52.2084 19.5684V19.483C52.2013 17.8904 52.539 16.3151 53.1985 14.8648C53.8466 13.4272 54.7762 12.1333 55.9328 11.0592C57.1452 9.94423 58.5615 9.07255 60.1043 8.49177C61.8135 7.84822 63.6283 7.52909 65.4551 7.5508C67.4843 7.48613 69.5054 7.83558 71.3945 8.57776C72.6805 9.13404 73.8706 9.88917 74.9208 10.8153C75.0026 10.8885 75.0685 10.9777 75.1143 11.0773C75.1601 11.177 75.185 11.2849 75.1872 11.3946C75.1894 11.5042 75.169 11.6131 75.1273 11.7145C75.0855 11.8159 75.0234 11.9077 74.9446 11.9841L71.6937 15.1549C71.5505 15.2939 71.3603 15.3745 71.1606 15.3809C70.9609 15.3873 70.7661 15.3191 70.6142 15.1896C70.006 14.6691 69.3431 14.2159 68.6372 13.8378C67.6327 13.351 66.5242 13.1161 65.4081 13.1536C64.5576 13.1415 63.7141 13.3091 62.9331 13.6453C62.2053 13.9644 61.5477 14.4233 60.9978 14.996C60.4478 15.5687 60.0163 16.2439 59.7279 16.9829C59.4258 17.7527 59.2729 18.5728 59.2775 19.3996V19.4849C59.2716 20.3324 59.4244 21.1735 59.7279 21.9651C60.0153 22.7176 60.4569 23.402 61.0243 23.9747C61.6033 24.5543 62.2925 25.0126 63.0515 25.3226C63.8891 25.6605 64.786 25.8277 65.6893 25.8143C66.7716 25.8388 67.8448 25.6121 68.8243 25.1519C69.5811 24.7733 70.2982 24.3202 70.9648 23.7995C71.1139 23.6845 71.299 23.6257 71.4873 23.6336C71.6757 23.6415 71.8551 23.7155 71.9941 23.8425L75.0488 26.6442C75.1312 26.7197 75.197 26.8115 75.2418 26.9137C75.2866 27.0159 75.3095 27.1264 75.3091 27.238C75.3087 27.3496 75.2849 27.4599 75.2393 27.5618C75.1937 27.6637 75.1273 27.7549 75.0443 27.8298C73.9724 28.7891 72.7757 29.5998 71.4866 30.24" fill="#1D2355"/>
<path d="M78.7835 30.7593V8.79219C78.7835 8.68717 78.8042 8.58318 78.8445 8.48615C78.8848 8.38912 78.9439 8.30095 79.0183 8.22669C79.0928 8.15242 79.1811 8.0935 79.2784 8.05331C79.3756 8.01312 79.4798 7.99243 79.5851 7.99243H84.1227C84.228 7.99235 84.3323 8.01297 84.4296 8.05314C84.5269 8.0933 84.6153 8.15221 84.6898 8.22649C84.7642 8.30077 84.8233 8.38898 84.8635 8.48605C84.9038 8.58312 84.9245 8.68714 84.9244 8.79219V30.7593C84.9244 30.9714 84.8399 31.1748 84.6896 31.3248C84.5392 31.4748 84.3353 31.559 84.1227 31.559H79.5851C79.4798 31.559 79.3756 31.5383 79.2784 31.4981C79.1811 31.4579 79.0928 31.399 79.0183 31.3248C78.9439 31.2505 78.8848 31.1623 78.8445 31.0653C78.8042 30.9683 78.7835 30.8643 78.7835 30.7593Z" fill="#1D2355"/>
<path d="M174.932 16.0497C174.318 17.4023 173.406 18.5996 172.265 19.553C171.097 20.5143 169.749 21.2343 168.299 21.6711C166.721 22.1512 165.079 22.3892 163.429 22.3771H159.073C158.861 22.3771 158.657 22.4614 158.506 22.6114C158.356 22.7614 158.272 22.9648 158.272 23.1769V31.1308C158.272 31.343 158.187 31.5464 158.037 31.6964C157.886 31.8463 157.682 31.9306 157.47 31.9306H152.286C152.074 31.9306 151.87 31.8463 151.72 31.6964C151.569 31.5464 151.485 31.343 151.485 31.1308V0.880566C151.485 0.668457 151.569 0.465043 151.72 0.315059C151.87 0.165075 152.074 0.0808055 152.286 0.0808055H164.091C165.778 0.0539575 167.456 0.32336 169.05 0.876707C170.428 1.36112 171.689 2.12839 172.752 3.129C173.771 4.10868 174.568 5.29553 175.088 6.60917C175.646 8.03678 175.923 9.55839 175.903 11.0906V11.1818C175.939 12.8555 175.608 14.5168 174.934 16.0497H174.932ZM169.028 11.2274C169.073 10.5556 168.963 9.88245 168.707 9.25945C168.451 8.63646 168.056 8.08011 167.551 7.63294C166.396 6.75905 164.966 6.32381 163.519 6.40506H159.073C158.861 6.40506 158.657 6.48933 158.506 6.63932C158.356 6.7893 158.272 6.99271 158.272 7.20482V15.3417C158.272 15.5538 158.356 15.7572 158.506 15.9072C158.657 16.0572 158.861 16.1415 159.073 16.1415H163.648C164.369 16.1863 165.091 16.0865 165.772 15.8482C166.454 15.6098 167.08 15.2377 167.615 14.7537C168.075 14.3091 168.437 13.7744 168.68 13.1832C168.923 12.592 169.04 11.9572 169.025 11.3185L169.028 11.2274Z" fill="#E01E26"/>
<path d="M181.223 0.105225C180.673 0.104845 180.135 0.267093 179.678 0.57146C179.221 0.875827 178.864 1.30864 178.654 1.81516C178.443 2.32169 178.388 2.87918 178.494 3.41713C178.601 3.95509 178.866 4.44935 179.254 4.83741C179.642 5.22546 180.138 5.4899 180.677 5.59727C181.216 5.70463 181.774 5.6501 182.282 5.44058C182.79 5.23106 183.225 4.87596 183.531 4.42018C183.836 3.9644 184 3.42841 184 2.87999C184 2.51583 183.929 2.15518 183.789 1.81863C183.65 1.48208 183.445 1.17622 183.187 0.918541C182.93 0.660863 182.623 0.456426 182.286 0.316874C181.949 0.177322 181.588 0.105394 181.223 0.105225ZM181.218 5.088C180.78 5.08723 180.352 4.95688 179.988 4.71341C179.624 4.46995 179.341 4.12432 179.174 3.72022C179.007 3.31612 178.964 2.87169 179.05 2.44316C179.136 2.01462 179.348 1.62122 179.658 1.31269C179.969 1.00417 180.364 0.794393 180.794 0.709869C181.223 0.625346 181.669 0.669871 182.073 0.837838C182.478 1.00581 182.823 1.28966 183.066 1.6535C183.309 2.01735 183.438 2.44485 183.437 2.88193C183.436 3.46793 183.201 4.02943 182.785 4.44308C182.369 4.85672 181.805 5.08868 181.218 5.088Z" fill="#1D2355"/>
<path d="M182.614 4.2394C182.55 4.10526 182.482 3.97045 182.414 3.8363C182.32 3.65209 182.236 3.46403 182.133 3.28431C182.073 3.17142 181.989 3.07304 181.887 2.99611C181.83 2.95619 181.767 2.92663 181.701 2.90883C181.739 2.89406 181.777 2.88186 181.813 2.86581C181.904 2.83109 181.987 2.77682 182.056 2.70676C182.125 2.63669 182.177 2.55253 182.209 2.46016C182.252 2.3281 182.266 2.18843 182.249 2.05065C182.245 1.92293 182.202 1.79949 182.127 1.69597C182.052 1.59245 181.947 1.5135 181.827 1.46912C181.65 1.40054 181.461 1.36549 181.271 1.36578C180.855 1.35808 180.439 1.36579 180.023 1.36194C180.004 1.36194 180 1.3677 180 1.38503C180 2.33713 180 3.28923 180 4.24132C180 4.26122 180.006 4.26508 180.025 4.26508H180.727C180.747 4.26508 180.751 4.25994 180.751 4.24132C180.751 4.14633 180.751 4.04876 180.751 3.95569C180.751 3.70194 180.751 3.44799 180.751 3.19381C180.751 3.17199 180.757 3.16685 180.778 3.16749C180.852 3.16749 180.927 3.16749 181.001 3.16749C181.07 3.16683 181.139 3.18275 181.201 3.21391C181.262 3.24507 181.316 3.29058 181.356 3.34658C181.395 3.39823 181.428 3.45296 181.457 3.51024C181.578 3.75286 181.697 3.99549 181.816 4.23811C181.819 4.24691 181.825 4.25438 181.833 4.25919C181.841 4.264 181.851 4.26585 181.86 4.26444H182.595C182.606 4.26648 182.617 4.26536 182.626 4.26123C182.623 4.25352 182.619 4.24647 182.616 4.2394H182.614ZM181.495 2.40688C181.482 2.46605 181.451 2.51979 181.406 2.56071C181.362 2.60163 181.305 2.62774 181.245 2.6354C181.187 2.64759 181.127 2.65338 181.068 2.65271C180.97 2.65271 180.875 2.65271 180.775 2.65271C180.755 2.65271 180.752 2.64694 180.752 2.62833C180.752 2.51215 180.752 2.39533 180.752 2.27915C180.752 2.16297 180.752 2.04809 180.752 1.93256C180.752 1.90881 180.759 1.90431 180.781 1.90431C180.906 1.90431 181.031 1.9011 181.156 1.90944C181.206 1.91236 181.256 1.92141 181.304 1.9364C181.353 1.95015 181.397 1.97722 181.431 2.01453C181.465 2.05185 181.488 2.09793 181.497 2.14758C181.517 2.23204 181.517 2.31986 181.497 2.40432" fill="#1D2355"/>
</g>
<defs>
<clipPath id="clip0_64_47">
<rect width="184" height="32" fill="white"/>
</clipPath>
</defs>
</svg>
